<?xml version="1.0" encoding="UTF-8" standalone="no"?>
<!DOCTYPE svg PUBLIC "-//W3C//DTD SVG 1.1//EN" "http://www.w3.org/Graphics/SVG/1.1/DTD/svg11.dtd">
<svg width="100%" height="100%" viewBox="0 0 259 87" version="1.1" xmlns="http://www.w3.org/2000/svg" xmlns:xlink="http://www.w3.org/1999/xlink" xml:space="preserve" xmlns:serif="http://www.serif.com/" style="fill-rule:evenodd;clip-rule:evenodd;stroke-linejoin:round;stroke-miterlimit:2;">
    <g transform="matrix(1.15701,0,0,1.15701,-212.831,-377.333)">
        <g transform="matrix(103.198,0,0,103.198,184,400)">
            <path d="M0.255,0L0,-0.716L0.156,-0.716L0.337,-0.186L0.513,-0.716L1.663,-0.716L1.663,-0.595L0.637,-0.607L0.41,0L0.255,0Z" style="fill:white;fill-rule:nonzero;"/>
        </g>
        <g transform="matrix(103.198,0,0,103.198,252.832,399.136)">
            <path d="M0.406,-0.263L0.406,-0.384L0.717,-0.384L0.717,-0.099C0.687,-0.069 0.643,-0.044 0.586,-0.021C0.528,0.001 0.47,0.012 0.411,0.012C0.336,0.012 0.271,-0.003 0.215,-0.035C0.16,-0.066 0.118,-0.111 0.09,-0.17C0.062,-0.228 0.048,-0.292 0.048,-0.36C0.048,-0.435 0.063,-0.501 0.095,-0.559C0.126,-0.617 0.172,-0.661 0.232,-0.692C0.278,-0.716 0.445,-0.604 0.403,-0.604C0.34,-0.604 0.29,-0.584 0.253,-0.544C0.215,-0.504 0.197,-0.445 0.197,-0.366C0.197,-0.281 0.216,-0.218 0.253,-0.175C0.291,-0.133 0.341,-0.111 0.402,-0.111C0.432,-0.111 0.462,-0.117 0.493,-0.129C0.523,-0.141 0.549,-0.155 0.571,-0.172L0.571,-0.263L0.406,-0.263Z" style="fill:white;fill-rule:nonzero;"/>
        </g>
        <g transform="matrix(103.198,0,0,103.198,333.103,400)">
            <path d="M0.073,0L0.218,0L0.218,-0.299L0.247,-0.299C0.356,-0.299 0.38,-0.245 0.439,-0.156L0.544,0L0.717,0L0.629,-0.14C0.604,-0.18 0.579,-0.221 0.547,-0.256C0.525,-0.28 0.5,-0.302 0.505,-0.316C0.509,-0.326 0.526,-0.327 0.552,-0.339C0.574,-0.35 0.595,-0.364 0.611,-0.382C0.684,-0.46 0.673,-0.603 0.591,-0.67C0.534,-0.717 0.446,-0.716 0.377,-0.716L0.073,-0.716L0.073,0ZM0.073,-0.615L0.218,-0.595L0.331,-0.595C0.389,-0.595 0.424,-0.594 0.436,-0.592C0.459,-0.588 0.478,-0.579 0.49,-0.564C0.503,-0.549 0.51,-0.53 0.51,-0.506C0.51,-0.484 0.505,-0.466 0.495,-0.452C0.485,-0.438 0.472,-0.428 0.455,-0.422C0.437,-0.416 0.394,-0.413 0.325,-0.413L0.073,-0.413L0.073,-0.615Z" style="fill:white;fill-rule:nonzero;"/>
        </g>
    </g>
</svg>
