<?xml version="1.0" encoding="UTF-8" standalone="no"?><!DOCTYPE svg PUBLIC "-//W3C//DTD SVG 1.1//EN" "http://www.w3.org/Graphics/SVG/1.1/DTD/svg11.dtd"><svg width="100%" height="100%" viewBox="0 0 259 87" version="1.1" xmlns="http://www.w3.org/2000/svg" xmlns:xlink="http://www.w3.org/1999/xlink" xml:space="preserve" xmlns:serif="http://www.serif.com/" style="fill-rule:evenodd;clip-rule:evenodd;stroke-linejoin:round;stroke-miterlimit:2;"><g><path d="M80.281,64.713l-15.222,-42.733l9.312,0l10.805,31.632l10.506,-31.632l68.65,0l0,7.221l-61.247,-0.716l-13.551,36.228l-9.253,0Z" style="fill:#fff;fill-rule:nonzero;"/><path d="M129.111,48.517l0,-7.222l18.565,0l0,17.01c-1.791,1.79 -4.417,3.282 -7.82,4.655c-3.462,1.313 -6.925,1.97 -10.447,1.97c-4.477,0 -8.357,-0.896 -11.7,-2.806c-3.283,-1.85 -5.79,-4.535 -7.462,-8.057c-1.671,-3.461 -2.507,-7.281 -2.507,-11.34c0,-4.476 0.896,-8.415 2.806,-11.877c1.85,-3.461 4.596,-6.087 8.178,-7.938c2.746,-1.432 12.715,5.253 10.208,5.253c-3.761,0 -6.746,1.193 -8.954,3.581c-2.269,2.387 -3.343,5.908 -3.343,10.623c0,5.073 1.134,8.833 3.343,11.4c2.268,2.506 5.253,3.82 8.894,3.82c1.791,0 3.582,-0.359 5.432,-1.075c1.791,-0.716 3.343,-1.552 4.657,-2.566l0,-5.431l-9.85,0Z" style="fill:#fff;fill-rule:nonzero;"/><path d="M155.665,64.713l8.656,0l0,-17.845l1.731,0c6.507,0 7.94,3.223 11.462,8.534l6.268,9.311l10.327,0l-5.253,-8.356c-1.493,-2.387 -2.985,-4.834 -4.895,-6.923c-1.314,-1.432 -2.806,-2.745 -2.507,-3.581c0.238,-0.597 1.253,-0.656 2.805,-1.373c1.313,-0.656 2.567,-1.492 3.522,-2.566c4.358,-4.655 3.701,-13.19 -1.194,-17.189c-3.402,-2.805 -8.655,-2.745 -12.774,-2.745l-18.148,0l0,42.733Zm0,-36.705l8.656,1.193l6.746,0c3.462,0 5.551,0.06 6.268,0.179c1.373,0.239 2.507,0.776 3.223,1.672c0.776,0.895 1.194,2.029 1.194,3.461c0,1.313 -0.298,2.388 -0.895,3.223c-0.597,0.836 -1.373,1.433 -2.388,1.791c-1.075,0.358 -3.642,0.537 -7.761,0.537l-15.043,0l0,-12.056Z" style="fill:#fff;fill-rule:nonzero;"/></g></svg>