<?xml version="1.0" standalone="no"?>
<!DOCTYPE svg PUBLIC "-//W3C//DTD SVG 20010904//EN"
 "http://www.w3.org/TR/2001/REC-SVG-20010904/DTD/svg10.dtd">
<svg version="1.0" xmlns="http://www.w3.org/2000/svg"
 width="2072.000000pt" height="2072.000000pt" viewBox="0 0 2072.000000 2072.000000"
 preserveAspectRatio="xMidYMid meet">
<metadata>
Created by potrace 1.11, written by Peter Selinger 2001-2013
</metadata>
<g transform="translate(0.000000,2072.000000) scale(0.100000,-0.100000)"
fill="#000000" stroke="none">
<path d="M10 13833 c0 -8 19 -61 110 -313 22 -63 58 -164 80 -225 21 -60 61
-175 90 -255 29 -80 56 -156 60 -170 5 -14 20 -56 35 -95 14 -38 27 -74 28
-80 3 -11 54 -156 67 -190 4 -11 12 -31 17 -45 6 -14 18 -47 27 -75 10 -27 40
-113 67 -190 28 -77 57 -160 65 -185 8 -25 19 -54 24 -65 5 -11 17 -42 26 -70
25 -73 47 -136 94 -265 23 -63 45 -126 50 -140 4 -14 31 -90 60 -170 28 -80
58 -165 67 -190 8 -25 20 -56 26 -70 5 -14 11 -29 13 -35 1 -5 23 -68 49 -140
25 -71 55 -157 66 -190 11 -33 24 -69 29 -80 18 -45 32 -84 31 -90 -1 -3 6
-19 14 -35 8 -16 15 -32 15 -35 1 -7 10 -36 20 -60 5 -11 15 -40 23 -65 8 -25
34 -97 57 -160 22 -63 43 -122 45 -130 2 -8 41 -116 86 -240 81 -225 155 -433
224 -630 20 -58 43 -119 50 -135 8 -17 16 -42 18 -55 3 -14 12 -41 20 -60 9
-19 32 -82 52 -140 84 -240 97 -277 110 -310 7 -19 30 -82 50 -140 20 -58 40
-114 45 -125 5 -11 16 -45 26 -75 9 -30 21 -61 27 -67 5 -7 7 -13 4 -13 -3 0
5 -27 18 -60 13 -33 21 -60 18 -60 -3 0 -1 -6 5 -12 6 -7 20 -42 32 -78 11
-36 24 -72 27 -80 3 -8 7 -17 8 -20 1 -3 4 -12 7 -20 11 -27 63 -175 64 -180
1 -6 11 -34 24 -65 4 -11 27 -74 50 -140 23 -66 50 -142 60 -170 10 -27 26
-71 35 -96 l16 -46 741 0 740 0 10 26 c5 14 11 31 12 36 2 6 8 21 14 35 6 14
43 113 82 220 39 107 77 209 84 225 7 17 23 59 36 95 12 36 26 74 30 85 8 19
21 55 25 65 1 3 7 19 14 35 7 17 30 80 52 140 21 61 43 117 48 125 5 9 12 30
15 48 4 17 12 34 17 37 5 4 9 14 9 23 1 9 9 35 20 57 10 22 16 43 14 47 -2 3
0 9 6 13 5 3 10 15 10 26 0 10 5 19 10 19 6 0 9 3 8 8 -3 7 19 68 68 197 12
33 39 105 59 160 20 55 40 109 45 120 5 11 21 54 35 95 15 41 30 84 35 95 12
26 32 77 36 90 1 6 16 46 32 90 17 44 54 143 82 220 28 77 56 151 62 165 17
40 24 58 68 180 23 63 46 124 50 135 37 93 82 213 83 225 2 8 6 20 10 27 7 11
27 64 101 268 15 39 30 79 35 90 5 11 16 40 25 65 8 25 21 59 27 75 7 17 13
32 14 35 1 3 4 12 7 20 14 36 122 328 133 357 6 18 14 36 18 39 4 4 7 14 7 22
0 13 18 62 85 232 7 19 28 73 45 120 17 47 35 93 40 102 6 10 10 26 10 36 0
10 4 22 8 28 5 5 19 38 32 74 12 36 27 76 33 90 6 14 11 27 11 30 1 5 15 42
36 95 4 11 19 52 34 90 14 39 56 149 92 245 36 96 67 180 68 185 4 14 16 45
31 80 12 28 27 70 31 88 1 4 3 9 4 12 1 3 3 8 4 13 2 4 7 18 14 32 6 14 18 46
28 72 9 26 21 45 25 42 5 -3 238 -8 517 -10 482 -5 882 -11 891 -13 3 -1 -5
-11 -16 -23 -20 -22 -107 -153 -129 -193 -6 -11 -31 -56 -56 -100 -26 -44 -66
-120 -90 -170 -23 -49 -47 -93 -53 -97 -5 -4 -7 -8 -2 -8 4 0 0 -15 -10 -32
-9 -18 -18 -35 -18 -38 -1 -3 -7 -18 -14 -35 -30 -73 -82 -212 -86 -231 -3
-12 -12 -41 -21 -65 -8 -24 -18 -55 -20 -69 -3 -14 -9 -36 -14 -50 -5 -14 -11
-36 -14 -50 -2 -14 -12 -53 -21 -87 -17 -68 -22 -89 -31 -143 -4 -19 -7 -39
-8 -45 -2 -5 -6 -32 -10 -60 -4 -27 -10 -57 -13 -65 -3 -8 -7 -31 -8 -50 -8
-96 -17 -178 -21 -200 -22 -127 -22 -772 1 -891 3 -15 12 -93 20 -174 1 -11 5
-31 8 -45 3 -14 8 -43 11 -65 5 -38 20 -122 32 -175 3 -14 7 -36 10 -50 3 -14
7 -33 10 -42 3 -9 7 -25 9 -35 4 -16 30 -117 39 -153 70 -258 256 -698 380
-895 52 -82 96 -151 104 -160 4 -5 23 -32 42 -60 19 -27 39 -55 45 -61 5 -7
21 -26 35 -44 134 -171 420 -444 543 -518 15 -9 27 -20 27 -24 0 -4 7 -8 15
-8 7 0 18 -6 22 -12 4 -7 20 -20 34 -28 15 -8 73 -43 130 -77 57 -35 109 -63
116 -63 7 0 13 -4 13 -10 0 -5 7 -10 15 -10 8 0 15 -5 15 -10 0 -6 3 -9 8 -8
11 2 65 -22 82 -37 8 -7 17 -14 20 -14 7 0 58 -19 95 -36 65 -29 178 -75 185
-75 5 0 21 -5 37 -12 34 -14 31 -13 68 -23 17 -4 36 -12 43 -18 6 -5 12 -7 12
-4 0 3 15 1 33 -5 83 -26 251 -67 255 -63 3 3 11 0 19 -6 7 -6 13 -9 13 -6 0
3 17 1 37 -4 21 -6 53 -12 72 -14 19 -2 57 -9 85 -14 28 -5 76 -13 106 -16 30
-4 66 -8 80 -10 30 -5 170 -15 260 -20 82 -5 434 -5 520 0 100 6 202 14 235
20 17 2 53 7 80 10 28 3 66 8 85 12 19 3 42 7 50 8 24 4 94 15 115 19 40 7
105 18 112 18 5 0 15 4 23 8 8 4 33 11 55 14 38 6 252 61 285 73 8 4 20 7 27
9 14 2 140 43 163 51 8 3 20 7 25 9 20 5 181 65 210 79 17 7 54 23 83 34 109
43 449 208 457 222 4 5 15 9 26 9 10 0 19 3 19 8 0 4 21 18 48 32 44 23 292
182 319 205 7 5 18 15 25 20 76 60 121 98 168 142 l55 52 0 1360 0 1361 -1485
0 -1486 0 2 -572 c1 -315 2 -575 3 -578 0 -3 354 -5 786 -5 l785 0 0 -434 0
-434 -27 -23 c-16 -13 -31 -24 -35 -24 -4 0 -13 -6 -20 -12 -38 -37 -185 -125
-348 -210 -94 -49 -309 -144 -345 -154 -5 -1 -27 -9 -47 -18 -21 -9 -38 -13
-38 -10 0 4 -6 1 -13 -5 -8 -6 -22 -12 -33 -14 -10 -2 -26 -7 -34 -10 -22 -8
-121 -35 -150 -41 -14 -2 -32 -7 -40 -10 -8 -3 -33 -8 -54 -11 -21 -3 -48 -8
-60 -11 -12 -2 -39 -7 -61 -9 -22 -3 -60 -8 -85 -11 -67 -9 -322 -9 -425 -1
-114 8 -150 14 -255 38 -47 11 -89 20 -95 20 -12 1 -170 56 -200 69 -62 27
-201 94 -205 99 -3 3 -23 15 -44 26 -22 11 -55 32 -74 47 -18 15 -42 30 -52
33 -10 3 -21 12 -24 20 -3 8 -10 15 -16 15 -11 0 -41 25 -129 105 -86 79 -133
132 -239 270 -24 31 -104 169 -129 220 -15 33 -31 62 -34 65 -16 13 -136 351
-154 430 -42 197 -61 296 -70 380 -3 19 -7 58 -10 85 -13 102 -14 120 -20 234
-12 248 -2 624 20 751 3 14 7 48 10 75 6 59 12 94 25 155 5 25 12 56 14 70 22
129 95 338 171 495 96 198 189 327 366 504 158 157 438 325 649 387 46 13 76
13 1290 -1 971 -11 1504 -17 1776 -19 160 -2 296 -6 302 -10 7 -4 12 -2 12 4
0 6 5 8 10 5 6 -4 218 -8 473 -11 635 -6 1206 -12 1762 -20 259 -3 898 -8
1420 -10 523 -2 956 -4 963 -4 6 0 18 0 25 1 15 1 299 -11 352 -15 49 -4 115
-15 135 -23 19 -8 17 -7 65 -17 22 -4 65 -19 95 -33 30 -14 64 -29 75 -34 41
-18 123 -77 167 -120 70 -68 138 -174 182 -282 42 -103 61 -312 44 -472 -15
-139 -74 -289 -153 -390 -111 -142 -282 -251 -437 -281 -13 -2 -34 -6 -48 -9
-78 -15 -73 -14 -253 -31 -225 -21 -588 -26 -1967 -28 l-1305 -1 -1 -1960 c0
-1078 1 -1965 3 -1971 3 -7 207 -10 691 -10 l687 1 2 1375 c1 756 2 1399 3
1428 l0 52 253 -5 c138 -2 268 -6 287 -9 19 -2 58 -7 85 -11 274 -36 542 -156
729 -325 147 -133 262 -274 434 -530 31 -47 60 -86 65 -88 4 -2 7 -9 7 -16 0
-7 8 -21 18 -32 19 -23 39 -52 49 -74 4 -8 11 -19 15 -25 5 -5 115 -170 245
-365 129 -195 260 -390 289 -433 30 -42 54 -82 54 -87 0 -6 4 -10 10 -10 5 0
16 -16 25 -35 9 -19 23 -39 31 -46 8 -6 14 -16 14 -21 0 -5 5 -14 10 -21 44
-51 60 -73 60 -79 0 -4 31 -52 70 -108 38 -56 70 -106 70 -111 0 -5 7 -12 15
-15 8 -4 15 -10 15 -14 0 -10 250 -382 262 -391 9 -6 1648 -9 1648 -3 0 4
-208 337 -256 411 -19 28 -34 56 -34 61 0 6 -4 12 -8 14 -5 2 -26 32 -48 68
-21 36 -42 67 -46 68 -5 2 -8 8 -8 14 0 5 -12 28 -28 51 -15 23 -31 50 -37 59
-12 20 -110 173 -172 270 -24 37 -43 72 -43 77 0 6 -4 11 -10 11 -5 0 -10 7
-10 15 0 8 -4 15 -10 15 -5 0 -10 5 -10 10 0 6 -16 33 -35 60 -19 27 -36 53
-37 57 -2 10 -74 123 -88 140 -5 6 -19 29 -30 50 -12 21 -48 79 -81 128 -33
50 -62 98 -66 108 -3 9 -9 17 -14 17 -5 0 -9 5 -9 11 0 7 -16 34 -35 60 -19
27 -35 54 -35 59 0 6 -3 10 -8 10 -4 0 -16 16 -26 35 -11 19 -23 35 -28 35 -4
0 -8 6 -8 13 0 6 -11 25 -25 41 -14 16 -25 33 -25 37 0 4 -6 14 -13 21 -6 7
-25 31 -42 53 -16 22 -33 45 -37 50 -4 6 -47 60 -95 120 -83 104 -113 140
-192 224 -18 20 -73 79 -122 131 -150 162 -179 195 -179 208 0 6 -4 12 -8 12
-9 0 -58 96 -65 128 -10 43 12 91 54 119 33 22 274 118 317 127 7 1 18 8 24
14 7 7 18 12 25 12 33 0 277 147 398 238 126 96 308 300 392 438 70 117 176
365 199 467 9 38 12 52 14 55 2 1 3 5 4 10 3 13 15 76 21 107 2 17 7 41 10 55
24 121 24 510 0 620 -3 14 -7 41 -10 60 -5 37 -7 49 -23 118 -5 23 -7 42 -3
42 3 0 1 4 -4 8 -6 4 -16 30 -23 57 -16 61 -67 202 -98 270 -12 28 -22 53 -21
56 1 4 -5 15 -13 25 -16 20 -29 42 -62 105 -11 21 -24 39 -29 39 -5 0 -8 4 -6
8 3 13 -115 171 -185 246 -72 79 -195 183 -283 241 -33 22 -62 40 -65 40 -3 0
-16 8 -30 17 -23 15 -110 57 -190 91 -49 20 -180 65 -210 71 -14 3 -61 15
-105 26 -44 11 -91 22 -105 25 -14 2 -50 9 -80 15 -52 10 -97 16 -180 24 -43
5 -158 17 -225 24 -27 3 -3016 7 -6641 9 l-6591 3 -13 -42 c-8 -24 -14 -45
-15 -48 -1 -3 -4 -12 -8 -20 -10 -27 -59 -175 -61 -185 -2 -11 -164 -500 -173
-525 -4 -8 -7 -17 -8 -20 -5 -19 -97 -298 -102 -310 -3 -8 -7 -17 -8 -20 -1
-3 -4 -12 -7 -20 -9 -22 -120 -363 -123 -375 -1 -5 -5 -17 -8 -25 -3 -8 -40
-118 -82 -245 -42 -126 -79 -237 -82 -245 -3 -8 -7 -19 -8 -25 -1 -5 -39 -120
-85 -255 -45 -135 -83 -249 -84 -255 -2 -5 -6 -17 -9 -25 -8 -20 -311 -934
-312 -940 0 -3 -9 -30 -20 -60 -10 -30 -20 -59 -21 -65 -6 -27 -93 -277 -98
-282 -3 -4 -6 -16 -6 -28 0 -12 -3 -25 -8 -29 -4 -4 -7 -11 -7 -14 -1 -4 -9
-32 -20 -62 -10 -30 -20 -59 -21 -65 -2 -8 -53 -165 -78 -240 -2 -5 -5 -14 -6
-20 -1 -5 -11 -32 -22 -60 -11 -27 -22 -58 -24 -68 -2 -10 -12 -43 -23 -73
-12 -30 -21 -55 -20 -57 0 -1 -2 -9 -5 -17 -18 -58 -30 -96 -31 -100 0 -3 -3
-9 -6 -15 -4 -5 -9 -22 -13 -37 -3 -15 -11 -40 -18 -55 -6 -15 -12 -35 -14
-43 -2 -9 -10 -31 -18 -50 -14 -35 -21 -32 -30 12 -2 7 -6 20 -9 28 -10 21
-77 221 -83 245 -3 11 -10 29 -14 40 -10 22 -129 370 -135 395 -3 8 -18 52
-34 98 -16 45 -27 82 -24 82 3 0 1 6 -4 13 -8 9 -57 146 -70 192 -1 6 -18 55
-37 110 -57 164 -234 681 -276 805 -21 63 -60 176 -85 250 -26 74 -48 140 -49
145 -2 6 -6 17 -9 25 -3 8 -15 44 -27 80 -12 36 -25 72 -27 80 -31 88 -165
479 -168 490 -4 12 -115 338 -171 499 -9 24 -17 51 -20 60 -2 9 -24 75 -50
146 -25 72 -47 135 -48 140 -2 6 -6 17 -9 25 -3 8 -29 85 -58 170 -29 85 -57
166 -62 180 -6 14 -12 34 -14 44 -2 11 -8 25 -14 33 -6 7 -9 13 -5 13 3 0 0
16 -8 35 -8 19 -12 35 -9 35 3 0 1 6 -4 13 -6 6 -16 30 -22 52 -7 22 -15 47
-18 55 -4 8 -7 17 -8 20 0 3 -9 30 -20 60 -11 30 -19 57 -20 60 0 3 -3 10 -6
15 -3 6 -25 70 -49 143 l-45 132 -742 0 c-409 0 -743 -3 -743 -7z"/>
</g>
</svg>
